<?xml version="1.0" encoding="utf-8"?>
<!-- Generator: Adobe Illustrator 23.0.3, SVG Export Plug-In . SVG Version: 6.00 Build 0)  -->
<svg version="1.1" id="Layer_1" xmlns="http://www.w3.org/2000/svg" xmlns:xlink="http://www.w3.org/1999/xlink" x="0px" y="0px"
	 viewBox="0 0 352 83" style="enable-background:new 0 0 352 83;" xml:space="preserve">
<g>
	<path d="M145.7,64.9c-3.1,0-6.1,0-9.3,0c0-9.5,0-19,0-28.4c-0.2-0.1-0.5-0.2-0.7-0.2c-0.8,1.6-1.7,3.1-2.5,4.7
		c-2.5,4.8-5,9.5-7.4,14.3c-0.8,1.7-2,2.1-3.7,2.1c-1.8,0-3-0.3-4-2.1c-3.2-6.4-6.5-12.7-10.4-18.9c0,9.5,0,19,0,28.6
		c-3.3,0-6.2,0-9.3,0c0-15.6,0-31.2,0-47c3,0,5.9-0.2,8.8,0.1c0.8,0.1,1.8,1.2,2.3,2.1c4.1,7.8,8.2,15.6,12.4,23.8
		c3.5-6.7,7.3-12.8,10-19.4c2.3-5.4,5.4-7.8,11.2-6.7c0.7,0.2,1.5,0.1,2.5,0.1C145.7,33.6,145.7,49.1,145.7,64.9z"/>
	<path d="M316.5,38.8c5.3-6,10.7-11.9,15.8-18.1c1.8-2.1,3.6-3.3,6.4-3c2.1,0.2,4.3,0,7.2,0c-6.3,7.3-12.1,14.1-18,21
		C334.2,47.5,340.4,56,347,65c-3.9,0-7,0.1-10.2-0.1c-0.7,0-1.6-1-2.1-1.7c-3.6-5-7.2-10-10.8-15c-0.7-0.9-1.4-1.8-2.1-2.7
		c-4.1,2.9-6.8,6.2-5.9,11.5c0.4,2.5,0.1,5.1,0.1,7.8c-3.2,0-6.1,0-9.3,0c0-15.5,0-31,0-46.7c3,0,6,0,9.2,0c0,6.8,0,13.6,0,20.4
		C316,38.6,316.3,38.7,316.5,38.8z"/>
	<path d="M260.7,26.2c0,3.8,0,7.1,0,10.7c5,0,9.9,0,14.7,0c5.3,0,4.8-0.6,4.8,4.9c0,1-0.1,1.9-0.2,3.1c-6.5,0-12.8,0-19.3,0
		c0,4,0,7.6,0,11.6c7.7,0,15.3,0,23.1,0c0,2.9,0,5.5,0,8.3c-10.9,0-21.7,0-32.7,0c0-15.6,0-31.1,0-46.8c10.7,0,21.3,0,32.2,0
		c0,2.7,0,5.3,0,8.1C275.8,26.2,268.4,26.2,260.7,26.2z"/>
	<path d="M93.6,64.9c-3.5,0-6.6,0-10,0c-1.2-3.2-2.5-6.4-3.6-9.6c-0.5-1.4-1.2-2-2.7-1.9c-3.9,0.1-7.8-0.1-11.8,0.1
		c-0.9,0.1-2.2,1-2.6,1.9c-1.1,2.4-2.1,4.9-2.8,7.4c-0.5,1.9-1.5,2.4-3.4,2.3c-2.3-0.2-4.7,0-7.4,0c0.3-1,0.5-1.8,0.8-2.6
		c5.3-14,10.7-27.9,15.9-41.9c0.8-2.1,1.7-2.8,4-2.8c5.7,0.2,5.7,0,7.7,5.3c4.9,13,9.9,25.9,14.8,38.9
		C92.9,62.9,93.2,63.8,93.6,64.9z M77.3,46.2c-2-5.6-3.8-10.9-5.9-16.7c-2.1,5.9-4.1,11.2-6.1,16.7C69.5,46.2,73.2,46.2,77.3,46.2z"
		/>
	<path d="M41.3,49.7c2.7,1.5,5.2,3,7.6,4.4c-2.8,7.5-13.3,12.8-22.1,11.4C15.6,63.6,7,53.8,6.5,42.2C6,31,13.4,20.8,23.8,18.2
		c10.2-2.6,20.3,1.4,24.5,10c-2.3,1.6-4.7,3.3-6.5,4.6c-2.8-2.1-5-4.4-7.7-5.6c-6-2.6-12.4-0.1-15.5,5.7c-3,5.6-3.1,11.5,0,17.1
		C23.7,59.1,35.9,59.2,41.3,49.7z"/>
	<path d="M212.4,64.8c0-15.7,0-31.1,0-46.8c3.2,0,6.2,0,9.6,0c0,12.8,0,25.5,0,38.5c8,0,15.7,0,23.6,0c0,2.9,0,5.5,0,8.3
		C234.7,64.8,223.7,64.8,212.4,64.8z"/>
	<path d="M174.3,18c3.1,0,6,0,9.2,0c0,12.8,0,25.6,0,38.7c8.2,0,15.9,0,23.9,0c0,2.9,0,5.5,0,8.2c-11.1,0-22,0-33.1,0
		C174.3,49.4,174.3,33.8,174.3,18z"/>
	<path d="M164.6,64.9c-3.2,0-6.2,0-9.3,0c0-15.6,0-31.1,0-46.9c3,0,6.1,0,9.3,0C164.6,33.7,164.6,49.2,164.6,64.9z"/>
</g>
</svg>
